<svg xmlns="http://www.w3.org/2000/svg" version="1.1" xmlns:xlink="http://www.w3.org/1999/xlink" xmlns:svgjs="http://svgjs.com/svgjs" width="1440" height="560" preserveAspectRatio="none" viewBox="0 0 1440 560"><g mask="url(&quot;#SvgjsMask1020&quot;)" fill="none"><path d="M1073.29 199.85 a26.73 26.73 0 1 0 53.46 0 a26.73 26.73 0 1 0 -53.46 0z" stroke="rgba(0, 132, 255, 1)"></path><path d="M879.13 559.24L891.59 559.24L891.59 571.7L879.13 571.7z" stroke="rgba(0, 132, 255, 1)"></path><path d="M176.34 398.94a25.69 25.69 0 1 0-9.95 50.41z" stroke="rgba(0, 132, 255, 1)"></path><path d="M444.98 433.2L473.12 433.2L473.12 468.37L444.98 468.37z" stroke="rgba(0, 132, 255, 1)"></path><path d="M383.6 177.25L394.64 177.25L394.64 185.03L383.6 185.03z" stroke="rgba(0, 132, 255, 1)"></path><path d="M239.73 84.18a11.63 11.63 0 1 0-15.12 17.67z" stroke="rgba(0, 132, 255, 1)"></path><path d="M263.3 188.3 a28.48 28.48 0 1 0 56.96 0 a28.48 28.48 0 1 0 -56.96 0z" stroke="rgba(0, 132, 255, 1)"></path><path d="M66.64 203.18 a26.4 26.4 0 1 0 52.8 0 a26.4 26.4 0 1 0 -52.8 0z" fill="rgba(0, 132, 255, 1)"></path><path d="M1066.81 186.15L1083.56 186.15L1083.56 202.9L1066.81 202.9z" fill="rgba(0, 132, 255, 1)"></path><path d="M1141.09 57.48L1174.03 57.48L1174.03 90.42L1141.09 90.42z" fill="rgba(0, 132, 255, 1)"></path><path d="M-6.6 23.24 a36.01 36.01 0 1 0 72.02 0 a36.01 36.01 0 1 0 -72.02 0z" fill="rgba(0, 132, 255, 1)"></path><path d="M115.42 234.35L135.33 234.35L135.33 254.26L115.42 254.26z" fill="rgba(0, 132, 255, 1)"></path><path d="M1363.17 388.55a21.76 21.76 0 1 0-24.74 35.8z" fill="rgba(0, 132, 255, 1)"></path><path d="M1127.49 521.76L1166.27 521.76L1166.27 560.54L1127.49 560.54z" stroke="rgba(0, 132, 255, 1)"></path><path d="M1026.03 182.64a7.01 7.01 0 1 0 12.35-6.64z" stroke="rgba(0, 132, 255, 1)"></path><path d="M1337.9 342.95a51.71 51.71 0 1 0-23.34 100.75z" fill="rgba(0, 132, 255, 1)"></path><path d="M516.03 387.36L558.11 387.36L558.11 387.81L516.03 387.81z" fill="rgba(0, 132, 255, 1)"></path><path d="M213.44 83.02a32.38 32.38 0 1 0 54.94 34.28z" stroke="rgba(0, 132, 255, 1)"></path><path d="M474.64 117.83L505.68 117.83L505.68 139.82L474.64 139.82z" fill="rgba(0, 132, 255, 1)"></path><path d="M238.01 268.7L269.14 268.7L269.14 299.83L238.01 299.83z" fill="rgba(0, 132, 255, 1)"></path><path d="M1046.89 27.87a14.11 14.11 0 1 0-16.76-22.7z" stroke="rgba(0, 132, 255, 1)"></path><path d="M395.35 158.71L410.51 158.71L410.51 173.87L395.35 173.87z" fill="rgba(0, 132, 255, 1)"></path><path d="M44.48 116.25L64.89 116.25L64.89 136.66L44.48 136.66z" stroke="rgba(0, 132, 255, 1)"></path><path d="M1085.98 480.7a33.7 33.7 0 1 0 57.52 35.12z" stroke="rgba(0, 132, 255, 1)"></path><path d="M1056.1 95.87L1075.33 95.87L1075.33 115.1L1056.1 115.1z" stroke="rgba(0, 132, 255, 1)"></path><path d="M940.35 85.19 a2.3 2.3 0 1 0 4.6 0 a2.3 2.3 0 1 0 -4.6 0z" fill="rgba(0, 132, 255, 1)"></path><path d="M1018.88 163.72L1054.8 163.72L1054.8 199.64L1018.88 199.64z" fill="rgba(0, 132, 255, 1)"></path><path d="M641.64 58.24a26 26 0 1 0 48.78-18z" fill="rgba(0, 132, 255, 1)"></path><path d="M880.97 126.52a50.08 50.08 0 1 0 100.05 4.7z" stroke="rgba(0, 132, 255, 1)"></path><path d="M247.91 466.92 a36.84 36.84 0 1 0 73.68 0 a36.84 36.84 0 1 0 -73.68 0z" stroke="rgba(0, 132, 255, 1)"></path><path d="M1191.42 510.82L1206.82 510.82L1206.82 516.06L1191.42 516.06z" stroke="rgba(0, 132, 255, 1)"></path><path d="M39.98 488.15a44.04 44.04 0 1 0 7.23 87.78z" fill="rgba(0, 132, 255, 1)"></path><path d="M953.16 415.62 a10.45 10.45 0 1 0 20.9 0 a10.45 10.45 0 1 0 -20.9 0z" fill="rgba(0, 132, 255, 1)"></path></g><defs><mask id="SvgjsMask1020"><rect width="1440" height="560" fill="#ffffff"></rect></mask></defs></svg>